<svg width="334" height="55" viewBox="0 0 334 55" fill="none" xmlns="http://www.w3.org/2000/svg">
<path d="M12.432 53.8017C9.984 53.8017 7.572 53.5317 5.196 52.9917C2.82 52.4157 0.912 51.6777 -0.528 50.7777L2.55 43.7577C3.882 44.5857 5.466 45.2517 7.302 45.7557C9.138 46.2237 10.956 46.4577 12.756 46.4577C14.412 46.4577 15.582 46.2957 16.266 45.9717C16.986 45.6117 17.346 45.1077 17.346 44.4597C17.346 43.8117 16.914 43.3617 16.05 43.1097C15.222 42.8217 13.89 42.5517 12.054 42.2997C9.714 42.0117 7.716 41.6337 6.06 41.1657C4.44 40.6977 3.036 39.8337 1.848 38.5737C0.66 37.3137 0.0660001 35.5497 0.0660001 33.2817C0.0660001 31.4097 0.624 29.7537 1.74 28.3137C2.856 26.8377 4.476 25.6857 6.6 24.8577C8.76 23.9937 11.334 23.5617 14.322 23.5617C16.446 23.5617 18.552 23.7777 20.64 24.2097C22.728 24.6417 24.474 25.2537 25.878 26.0457L22.8 33.0117C20.208 31.5717 17.4 30.8517 14.376 30.8517C12.756 30.8517 11.568 31.0497 10.812 31.4457C10.056 31.8057 9.678 32.2917 9.678 32.9037C9.678 33.5877 10.092 34.0737 10.92 34.3617C11.748 34.6137 13.116 34.8837 15.024 35.1717C17.436 35.5317 19.434 35.9457 21.018 36.4137C22.602 36.8817 23.97 37.7457 25.122 39.0057C26.31 40.2297 26.904 41.9577 26.904 44.1897C26.904 46.0257 26.346 47.6817 25.23 49.1577C24.114 50.5977 22.458 51.7317 20.262 52.5597C18.102 53.3877 15.492 53.8017 12.432 53.8017ZM60.4853 24.0477V53.3157H50.7113V50.1837C49.6313 51.3717 48.3353 52.2717 46.8233 52.8837C45.3113 53.4957 43.7093 53.8017 42.0172 53.8017C38.2372 53.8017 35.2132 52.6857 32.9452 50.4537C30.7132 48.2217 29.5972 44.8737 29.5972 40.4097V24.0477H39.8572V38.7357C39.8572 40.9317 40.2712 42.5337 41.0992 43.5417C41.9273 44.5497 43.1333 45.0537 44.7173 45.0537C46.3372 45.0537 47.6512 44.4957 48.6593 43.3797C49.7033 42.2277 50.2252 40.4817 50.2252 38.1417V24.0477H60.4853ZM83.8879 23.5617C86.5519 23.5617 88.9639 24.1737 91.1239 25.3977C93.3199 26.6217 95.0479 28.3857 96.3079 30.6897C97.6039 32.9577 98.2519 35.6037 98.2519 38.6277C98.2519 41.6517 97.6039 44.3157 96.3079 46.6197C95.0479 48.9237 93.3199 50.7057 91.1239 51.9657C88.9639 53.1897 86.5519 53.8017 83.8879 53.8017C80.0359 53.8017 77.1559 52.6677 75.2479 50.3997V53.3157H65.4739V13.2477H75.7339V26.5857C77.7139 24.5697 80.4319 23.5617 83.8879 23.5617ZM81.7279 45.6477C83.5279 45.6477 85.0039 45.0357 86.1559 43.8117C87.3079 42.5517 87.8839 40.8237 87.8839 38.6277C87.8839 36.4677 87.3079 34.7757 86.1559 33.5517C85.0039 32.3277 83.5279 31.7157 81.7279 31.7157C79.9279 31.7157 78.4519 32.3277 77.2999 33.5517C76.1479 34.7757 75.5719 36.4677 75.5719 38.6277C75.5719 40.8237 76.1479 42.5517 77.2999 43.8117C78.4519 45.0357 79.9279 45.6477 81.7279 45.6477ZM116.467 54.1797C113.191 54.1797 110.113 53.8377 107.233 53.1537C104.353 52.4337 101.977 51.4977 100.105 50.3457L105.019 40.9497C109.087 43.2897 113.335 44.4597 117.763 44.4597C119.383 44.4597 120.625 44.2617 121.489 43.8657C122.353 43.4697 122.785 42.9297 122.785 42.2457C122.785 41.5977 122.335 41.0757 121.435 40.6797C120.571 40.2837 119.185 39.8517 117.277 39.3837C114.757 38.7357 112.669 38.0877 111.013 37.4397C109.357 36.7557 107.899 35.7297 106.639 34.3617C105.415 32.9577 104.803 31.1217 104.803 28.8537C104.803 26.0097 105.559 23.5257 107.071 21.4017C108.619 19.2417 110.833 17.5857 113.713 16.4337C116.593 15.2457 119.995 14.6517 123.919 14.6517C126.727 14.6517 129.337 14.9397 131.749 15.5157C134.197 16.0557 136.303 16.8477 138.067 17.8917L133.477 27.1797C132.001 26.2437 130.363 25.5417 128.563 25.0737C126.799 24.6057 124.981 24.3717 123.109 24.3717C121.345 24.3717 119.977 24.6237 119.005 25.1277C118.033 25.6317 117.547 26.2257 117.547 26.9097C117.547 27.5937 117.979 28.1337 118.843 28.5297C119.743 28.9257 121.201 29.3577 123.217 29.8257C125.665 30.4017 127.717 31.0137 129.373 31.6617C131.065 32.3097 132.523 33.3177 133.747 34.6857C134.971 36.0537 135.583 37.8537 135.583 40.0857C135.583 42.8937 134.809 45.3597 133.261 47.4837C131.713 49.6077 129.499 51.2637 126.619 52.4517C123.739 53.6037 120.355 54.1797 116.467 54.1797ZM158.437 54.1797C154.585 54.1797 151.183 53.4777 148.231 52.0737C145.315 50.6337 143.047 48.6357 141.427 46.0797C139.843 43.5237 139.051 40.5897 139.051 37.2777C139.051 32.8857 140.059 28.9797 142.075 25.5597C144.127 22.1397 146.953 19.4757 150.553 17.5677C154.189 15.6237 158.311 14.6517 162.919 14.6517C166.555 14.6517 169.777 15.3177 172.585 16.6497C175.393 17.9457 177.481 19.7997 178.849 22.2117L169.669 29.3937C167.977 26.4417 165.457 24.9657 162.109 24.9657C160.129 24.9657 158.365 25.4517 156.817 26.4237C155.269 27.3957 154.063 28.7637 153.199 30.5277C152.335 32.2557 151.903 34.2357 151.903 36.4677C151.903 38.6997 152.605 40.4997 154.009 41.8677C155.449 43.1997 157.339 43.8657 159.679 43.8657C162.883 43.8657 165.691 42.4077 168.103 39.4917L175.609 46.6737C173.413 49.3737 170.911 51.2997 168.103 52.4517C165.331 53.6037 162.109 54.1797 158.437 54.1797ZM217.359 27.9357C217.359 31.2837 216.459 34.2177 214.659 36.7377C212.895 39.2217 210.393 41.0757 207.153 42.2997L213.471 53.3157H200.241L194.895 43.8117H191.763L189.873 53.3157H177.129L184.689 15.5157H201.645C206.613 15.5157 210.465 16.6137 213.201 18.8097C215.973 20.9697 217.359 24.0117 217.359 27.9357ZM204.453 29.1777C204.453 26.6217 202.869 25.3437 199.701 25.3437H195.435L193.653 34.1997H198.891C200.655 34.1997 202.023 33.7677 202.995 32.9037C203.967 32.0037 204.453 30.7617 204.453 29.1777ZM224.925 15.5157H237.669L230.109 53.3157H217.365L224.925 15.5157ZM260.598 15.5157C265.638 15.5157 269.544 16.6137 272.316 18.8097C275.088 21.0057 276.474 24.0837 276.474 28.0437C276.474 31.2117 275.682 34.0017 274.098 36.4137C272.55 38.8257 270.318 40.6977 267.402 42.0297C264.522 43.3617 261.174 44.0277 257.358 44.0277H250.824L248.988 53.3157H236.244L243.804 15.5157H260.598ZM258.006 34.1997C259.77 34.1997 261.138 33.7677 262.11 32.9037C263.082 32.0037 263.568 30.7617 263.568 29.1777C263.568 26.6217 261.984 25.3437 258.816 25.3437H254.55L252.768 34.1997H258.006ZM288.774 25.3977H277.704L279.702 15.5157H314.586L312.588 25.3977H301.518L295.956 53.3157H283.212L288.774 25.3977Z" fill="#001168"/>
<path d="M96.548 14.9585C94.568 14.9585 92.948 14.3645 91.688 13.1765C90.464 11.9525 89.852 10.4045 89.852 8.53249C89.852 6.30049 90.59 4.50049 92.066 3.13249C93.542 1.72849 95.36 1.02649 97.52 1.02649C99.5 1.02649 101.102 1.62049 102.326 2.80849C103.55 3.99649 104.162 5.54449 104.162 7.45249C104.162 9.68449 103.424 11.5025 101.948 12.9065C100.472 14.2745 98.672 14.9585 96.548 14.9585Z" fill="#FF0000"/>
</svg>
