<svg width="335" height="57" viewBox="0 0 335 57" fill="none" xmlns="http://www.w3.org/2000/svg">
<path d="M19.096 54.0665C16.108 54.0665 13.21 53.6705 10.402 52.8785C7.62997 52.0505 5.39797 50.9885 3.70597 49.6925L6.67597 43.1045C8.29597 44.2925 10.222 45.2465 12.454 45.9665C14.686 46.6865 16.918 47.0465 19.15 47.0465C21.634 47.0465 23.47 46.6865 24.658 45.9665C25.846 45.2105 26.44 44.2205 26.44 42.9965C26.44 42.0965 26.08 41.3585 25.36 40.7825C24.676 40.1705 23.776 39.6845 22.66 39.3245C21.58 38.9645 20.104 38.5685 18.232 38.1365C15.352 37.4525 12.994 36.7685 11.158 36.0845C9.32197 35.4005 7.73797 34.3025 6.40597 32.7905C5.10997 31.2785 4.46197 29.2625 4.46197 26.7425C4.46197 24.5465 5.05597 22.5665 6.24397 20.8025C7.43197 19.0025 9.21397 17.5805 11.59 16.5365C14.002 15.4925 16.936 14.9705 20.392 14.9705C22.804 14.9705 25.162 15.2585 27.466 15.8345C29.77 16.4105 31.786 17.2385 33.514 18.3185L30.814 24.9605C27.322 22.9805 23.83 21.9905 20.338 21.9905C17.89 21.9905 16.072 22.3865 14.884 23.1785C13.732 23.9705 13.156 25.0145 13.156 26.3105C13.156 27.6065 13.822 28.5785 15.154 29.2265C16.522 29.8385 18.592 30.4505 21.364 31.0625C24.244 31.7465 26.602 32.4305 28.438 33.1145C30.274 33.7985 31.84 34.8785 33.136 36.3545C34.468 37.8305 35.134 39.8285 35.134 42.3485C35.134 44.5085 34.522 46.4885 33.298 48.2885C32.11 50.0525 30.31 51.4565 27.898 52.5005C25.486 53.5445 22.552 54.0665 19.096 54.0665ZM56.2855 54.0665C50.8855 54.0665 46.6735 52.5725 43.6495 49.5845C40.6615 46.5965 39.1675 42.3305 39.1675 36.7865V15.6185H47.9155V36.4625C47.9155 43.2305 50.7235 46.6145 56.3395 46.6145C59.0755 46.6145 61.1635 45.8045 62.6035 44.1845C64.0435 42.5285 64.7635 39.9545 64.7635 36.4625V15.6185H73.4035V36.7865C73.4035 42.3305 71.8915 46.5965 68.8675 49.5845C65.8795 52.5725 61.6855 54.0665 56.2855 54.0665ZM108.184 33.7625C110.344 34.4465 112.036 35.5985 113.26 37.2185C114.484 38.8025 115.096 40.7645 115.096 43.1045C115.096 46.4165 113.8 48.9725 111.208 50.7725C108.652 52.5365 104.908 53.4185 99.9762 53.4185H80.4282V15.6185H98.8962C103.504 15.6185 107.032 16.5005 109.48 18.2645C111.964 20.0285 113.206 22.4225 113.206 25.4465C113.206 27.2825 112.756 28.9205 111.856 30.3605C110.992 31.8005 109.768 32.9345 108.184 33.7625ZM89.1222 22.2065V31.1165H97.8162C99.9762 31.1165 101.614 30.7385 102.73 29.9825C103.846 29.2265 104.404 28.1105 104.404 26.6345C104.404 25.1585 103.846 24.0605 102.73 23.3405C101.614 22.5845 99.9762 22.2065 97.8162 22.2065H89.1222ZM99.3282 46.8305C101.632 46.8305 103.36 46.4525 104.512 45.6965C105.7 44.9405 106.294 43.7705 106.294 42.1865C106.294 39.0545 103.972 37.4885 99.3282 37.4885H89.1222V46.8305H99.3282ZM135.597 54.2825C132.321 54.2825 129.243 53.9405 126.363 53.2565C123.483 52.5365 121.107 51.6005 119.235 50.4485L124.149 41.0525C128.217 43.3925 132.465 44.5625 136.893 44.5625C138.513 44.5625 139.755 44.3645 140.619 43.9685C141.483 43.5725 141.915 43.0325 141.915 42.3485C141.915 41.7005 141.465 41.1785 140.565 40.7825C139.701 40.3865 138.315 39.9545 136.407 39.4865C133.887 38.8385 131.799 38.1905 130.143 37.5425C128.487 36.8585 127.029 35.8325 125.769 34.4645C124.545 33.0605 123.933 31.2245 123.933 28.9565C123.933 26.1125 124.689 23.6285 126.201 21.5045C127.749 19.3445 129.963 17.6885 132.843 16.5365C135.723 15.3485 139.125 14.7545 143.049 14.7545C145.857 14.7545 148.467 15.0425 150.879 15.6185C153.327 16.1585 155.433 16.9505 157.197 17.9945L152.607 27.2825C151.131 26.3465 149.493 25.6445 147.693 25.1765C145.929 24.7085 144.111 24.4745 142.239 24.4745C140.475 24.4745 139.107 24.7265 138.135 25.2305C137.163 25.7345 136.677 26.3285 136.677 27.0125C136.677 27.6965 137.109 28.2365 137.973 28.6325C138.873 29.0285 140.331 29.4605 142.347 29.9285C144.795 30.5045 146.847 31.1165 148.503 31.7645C150.195 32.4125 151.653 33.4205 152.877 34.7885C154.101 36.1565 154.713 37.9565 154.713 40.1885C154.713 42.9965 153.939 45.4625 152.391 47.5865C150.843 49.7105 148.629 51.3665 145.749 52.5545C142.869 53.7065 139.485 54.2825 135.597 54.2825ZM177.567 54.2825C173.715 54.2825 170.313 53.5805 167.361 52.1765C164.445 50.7365 162.177 48.7385 160.557 46.1825C158.973 43.6265 158.181 40.6925 158.181 37.3805C158.181 32.9885 159.189 29.0825 161.205 25.6625C163.257 22.2425 166.083 19.5785 169.683 17.6705C173.319 15.7265 177.441 14.7545 182.049 14.7545C185.685 14.7545 188.907 15.4205 191.715 16.7525C194.523 18.0485 196.611 19.9025 197.979 22.3145L188.799 29.4965C187.107 26.5445 184.587 25.0685 181.239 25.0685C179.259 25.0685 177.495 25.5545 175.947 26.5265C174.399 27.4985 173.193 28.8665 172.329 30.6305C171.465 32.3585 171.033 34.3385 171.033 36.5705C171.033 38.8025 171.735 40.6025 173.139 41.9705C174.579 43.3025 176.469 43.9685 178.809 43.9685C182.013 43.9685 184.821 42.5105 187.233 39.5945L194.739 46.7765C192.543 49.4765 190.041 51.4025 187.233 52.5545C184.461 53.7065 181.239 54.2825 177.567 54.2825ZM236.489 28.0385C236.489 31.3865 235.589 34.3205 233.789 36.8405C232.025 39.3245 229.523 41.1785 226.283 42.4025L232.601 53.4185H219.371L214.025 43.9145H210.893L209.003 53.4185H196.259L203.819 15.6185H220.775C225.743 15.6185 229.595 16.7165 232.331 18.9125C235.103 21.0725 236.489 24.1145 236.489 28.0385ZM223.583 29.2805C223.583 26.7245 221.999 25.4465 218.831 25.4465H214.565L212.783 34.3025H218.021C219.785 34.3025 221.153 33.8705 222.125 33.0065C223.097 32.1065 223.583 30.8645 223.583 29.2805ZM244.055 15.6185H256.799L249.239 53.4185H236.495L244.055 15.6185ZM279.728 15.6185C284.768 15.6185 288.674 16.7165 291.446 18.9125C294.218 21.1085 295.604 24.1865 295.604 28.1465C295.604 31.3145 294.812 34.1045 293.228 36.5165C291.68 38.9285 289.448 40.8005 286.532 42.1325C283.652 43.4645 280.304 44.1305 276.488 44.1305H269.954L268.118 53.4185H255.374L262.934 15.6185H279.728ZM277.136 34.3025C278.9 34.3025 280.268 33.8705 281.24 33.0065C282.212 32.1065 282.698 30.8645 282.698 29.2805C282.698 26.7245 281.114 25.4465 277.946 25.4465H273.68L271.898 34.3025H277.136ZM307.904 25.5005H296.834L298.832 15.6185H333.716L331.718 25.5005H320.648L315.086 53.4185H302.342L307.904 25.5005Z" fill="#001168"/>
<path d="M119.242 15.0613C117.262 15.0613 115.642 14.4673 114.382 13.2793C113.158 12.0553 112.546 10.5073 112.546 8.63527C112.546 6.40327 113.284 4.60327 114.76 3.23527C116.236 1.83127 118.054 1.12927 120.214 1.12927C122.194 1.12927 123.796 1.72327 125.02 2.91127C126.244 4.09927 126.856 5.64727 126.856 7.55527C126.856 9.78727 126.118 11.6053 124.642 13.0093C123.166 14.3773 121.366 15.0613 119.242 15.0613Z" fill="#FF0000"/>
</svg>
