<svg width="333" height="70" viewBox="0 0 333 70" fill="none" xmlns="http://www.w3.org/2000/svg">
<path d="M17.3302 69.6711C14.1982 69.6711 11.1382 69.3291 8.15023 68.6451C5.19823 67.9251 2.76823 66.9711 0.860229 65.7831L4.96423 56.4951C6.76423 57.5391 8.78023 58.3851 11.0122 59.0331C13.2442 59.6451 15.3862 59.9511 17.4382 59.9511C19.2022 59.9511 20.4622 59.7891 21.2182 59.4651C21.9742 59.1051 22.3522 58.5831 22.3522 57.8991C22.3522 57.1071 21.8482 56.5131 20.8402 56.1171C19.8682 55.7211 18.2482 55.2891 15.9802 54.8211C13.0642 54.2091 10.6342 53.5611 8.69023 52.8771C6.74623 52.1571 5.05423 51.0051 3.61423 49.4211C2.17423 47.8011 1.45423 45.6231 1.45423 42.8871C1.45423 40.5111 2.12023 38.3511 3.45223 36.4071C4.78423 34.4631 6.76423 32.9331 9.39223 31.8171C12.0562 30.7011 15.2782 30.1431 19.0582 30.1431C21.6502 30.1431 24.1882 30.4311 26.6722 31.0071C29.1922 31.5471 31.4062 32.3571 33.3142 33.4371L29.4802 42.6711C25.7722 40.7991 22.2622 39.8631 18.9502 39.8631C15.6742 39.8631 14.0362 40.6551 14.0362 42.2391C14.0362 42.9951 14.5222 43.5711 15.4942 43.9671C16.4662 44.3271 18.0682 44.7231 20.3002 45.1551C23.1802 45.6951 25.6102 46.3251 27.5902 47.0451C29.5702 47.7291 31.2802 48.8631 32.7202 50.4471C34.1962 52.0311 34.9342 54.1911 34.9342 56.9271C34.9342 59.3031 34.2682 61.4631 32.9362 63.4071C31.6042 65.3151 29.6062 66.8451 26.9422 67.9971C24.3142 69.1131 21.1102 69.6711 17.3302 69.6711Z" fill="#001168"/>
<path d="M56.8165 69.6711C51.0205 69.6711 46.5025 68.1051 43.2625 64.9731C40.0225 61.8411 38.4025 57.4491 38.4025 51.7971V31.0071H51.1465V51.4191C51.1465 54.1911 51.6325 56.2071 52.6045 57.4671C53.6125 58.7271 55.0525 59.3571 56.9245 59.3571C58.7965 59.3571 60.2185 58.7271 61.1905 57.4671C62.1985 56.2071 62.7025 54.1911 62.7025 51.4191V31.0071H75.2305V51.7971C75.2305 57.4491 73.6105 61.8411 70.3705 64.9731C67.1305 68.1051 62.6125 69.6711 56.8165 69.6711Z" fill="#001168"/>
<path d="M176.85 69.6711C172.998 69.6711 169.596 68.9691 166.644 67.5651C163.728 66.1251 161.46 64.1271 159.84 61.5711C158.256 59.0151 157.464 56.0811 157.464 52.7691C157.464 48.3771 158.472 44.4711 160.488 41.0511C162.54 37.6311 165.366 34.9671 168.966 33.0591C172.602 31.1151 176.724 30.1431 181.332 30.1431C184.968 30.1431 188.19 30.8091 190.998 32.1411C193.806 33.4371 195.894 35.2911 197.262 37.7031L188.082 44.8851C186.39 41.9331 183.87 40.4571 180.522 40.4571C178.542 40.4571 176.778 40.9431 175.23 41.9151C173.682 42.8871 172.476 44.2551 171.612 46.0191C170.748 47.7471 170.316 49.7271 170.316 51.9591C170.316 54.1911 171.018 55.9911 172.422 57.3591C173.862 58.6911 175.752 59.3571 178.092 59.3571C181.296 59.3571 184.104 57.8991 186.516 54.9831L194.022 62.1651C191.826 64.8651 189.324 66.7911 186.516 67.9431C183.744 69.0951 180.522 69.6711 176.85 69.6711Z" fill="#001168"/>
<path d="M235.772 43.4271C235.772 46.7751 234.872 49.7091 233.072 52.2291C231.308 54.7131 228.806 56.5671 225.566 57.7911L231.884 68.8071H218.654L213.308 59.3031H210.176L208.286 68.8071H195.542L203.102 31.0071H220.058C225.026 31.0071 228.878 32.1051 231.614 34.3011C234.386 36.4611 235.772 39.5031 235.772 43.4271ZM222.866 44.6691C222.866 42.1131 221.282 40.8351 218.114 40.8351H213.848L212.066 49.6911H217.304C219.068 49.6911 220.436 49.2591 221.408 48.3951C222.38 47.4951 222.866 46.2531 222.866 44.6691Z" fill="#001168"/>
<path d="M243.338 31.0071H256.082L248.522 68.8071H235.778L243.338 31.0071Z" fill="#001168"/>
<path d="M279.011 31.0071C284.051 31.0071 287.957 32.1051 290.729 34.3011C293.501 36.4971 294.887 39.5751 294.887 43.5351C294.887 46.7031 294.095 49.4931 292.511 51.9051C290.963 54.3171 288.731 56.1891 285.815 57.5211C282.935 58.8531 279.587 59.5191 275.771 59.5191H269.237L267.401 68.8071H254.657L262.217 31.0071H279.011ZM276.419 49.6911C278.183 49.6911 279.551 49.2591 280.523 48.3951C281.495 47.4951 281.981 46.2531 281.981 44.6691C281.981 42.1131 280.397 40.8351 277.229 40.8351H272.963L271.181 49.6911H276.419Z" fill="#001168"/>
<path d="M307.187 40.8891H296.117L298.115 31.0071H332.999L331.001 40.8891H319.931L314.369 68.8071H301.625L307.187 40.8891Z" fill="#001168"/>
<path fill-rule="evenodd" clip-rule="evenodd" d="M125.494 36.8931C124.337 38.5183 123.622 40.3543 123.351 42.4011H135.97C135.97 41.7171 136.456 41.1231 137.428 40.6191C138.4 40.1151 139.768 39.8631 141.532 39.8631C143.404 39.8631 145.222 40.0971 146.986 40.5651C148.786 41.0331 150.424 41.7351 151.9 42.6711L156.49 33.3831C154.726 32.3391 152.62 31.5471 150.172 31.0071C147.76 30.4311 145.15 30.1431 142.342 30.1431C138.418 30.1431 135.016 30.7371 132.136 31.9251C129.256 33.0771 127.042 34.7331 125.494 36.8931Z" fill="#001168"/>
<path d="M135.69 54.8751C134.391 54.5411 133.207 54.2071 132.137 53.873H124.057C129.986 53.9128 133.187 54.2235 138.521 55.6656C137.759 55.4146 136.815 55.1511 135.69 54.8751Z" fill="#FF0000"/>
<path fill-rule="evenodd" clip-rule="evenodd" d="M125.646 68.6451C128.526 69.3291 131.604 69.6711 134.88 69.6711C138.768 69.6711 142.152 69.0951 145.032 67.9431C147.912 66.7551 150.126 65.0991 151.674 62.9751C153.222 60.8511 153.996 58.3851 153.996 55.5771C153.996 53.3451 153.384 51.5451 152.16 50.1771C151.102 48.995 149.87 48.0817 148.463 47.4372C144.437 46.0315 140.42 45.6595 130.87 45.5605H123.279C123.463 47.2782 124.054 48.709 125.052 49.8531C126.312 51.2211 127.77 52.2471 129.426 52.9311C131.082 53.5791 133.17 54.2271 135.69 54.8751C136.815 55.1511 137.759 55.4146 138.521 55.6656C139.051 55.8401 139.493 56.0086 139.848 56.1711C140.748 56.5671 141.198 57.0891 141.198 57.7371C141.198 58.4211 140.766 58.9611 139.902 59.3571C139.038 59.7531 137.796 59.9511 136.176 59.9511C131.748 59.9511 127.5 58.7811 123.432 56.4411L118.518 65.8371C120.39 66.9891 122.766 67.9251 125.646 68.6451Z" fill="#FF0000"/>
<path d="M111.312 49.0431C113.544 49.8711 115.272 51.0771 116.496 52.6611C116.794 53.0459 117.055 53.4499 117.28 53.873H124.057H132.137C131.132 53.5591 130.228 53.2451 129.426 52.9311C127.77 52.2471 126.312 51.2211 125.052 49.8531C124.054 48.709 123.463 47.2782 123.279 45.5605H115.251C115.234 45.5875 115.217 45.6143 115.2 45.6411C114.336 47.0451 113.04 48.1791 111.312 49.0431Z" fill="#FF0000"/>
<path d="M116.496 52.6611C115.272 51.0771 113.544 49.8711 111.312 49.0431C113.04 48.1791 114.336 47.0451 115.2 45.6411C115.217 45.6143 115.234 45.5875 115.251 45.5605C116.117 44.1766 116.55 42.6194 116.55 40.8891C116.55 37.9011 115.254 35.5071 112.662 33.7071C110.106 31.9071 106.308 31.0071 101.268 31.0071H93.6001H82.0721V39.8631L93.6001 39.9171H99.5401C102.312 39.9171 103.698 40.8531 103.698 42.7251C103.698 44.5971 102.312 45.5331 99.5401 45.5331H93.6001L82.0721 45.449V53.873L93.6001 53.9571H101.268C104.076 53.9571 105.48 54.9471 105.48 56.9271C105.48 58.9071 104.076 59.8971 101.268 59.8971H93.6001L82.0721 59.9511V68.8071H93.6001H102.348C107.532 68.8071 111.492 67.9071 114.228 66.1071C116.964 64.2711 118.332 61.6971 118.332 58.3851C118.332 56.6954 117.981 55.1914 117.28 53.873C117.055 53.4499 116.794 53.0459 116.496 52.6611Z" fill="#FF0000"/>
<path d="M118.428 19.1101C121.596 19.1101 124.998 17.6341 127.338 14.6821L135.384 21.8641C133.512 24.3121 131.136 26.1841 128.256 27.4801C125.376 28.7761 122.1 29.4241 118.428 29.4241C114.756 29.4241 111.48 28.7761 108.6 27.4801C105.72 26.1841 103.344 24.3121 101.472 21.8641L109.518 14.6821C111.858 17.6341 115.26 19.1101 118.428 19.1101Z" fill="#FF0000"/>
<path d="M118.298 14.5933C116.246 14.5933 114.536 13.9453 113.168 12.6493C111.836 11.3173 111.17 9.62526 111.17 7.57326C111.17 5.52126 111.836 3.86526 113.168 2.60526C114.536 1.30926 116.246 0.661255 118.298 0.661255C120.35 0.661255 122.042 1.30926 123.374 2.60526C124.742 3.86526 125.426 5.52126 125.426 7.57326C125.426 9.62526 124.742 11.3173 123.374 12.6493C122.042 13.9453 120.35 14.5933 118.298 14.5933Z" fill="#FF0000"/>
</svg>
