<svg width="334" height="55" viewBox="0 0 334 55" fill="none" xmlns="http://www.w3.org/2000/svg">
<path d="M19.672 54.1797C16.54 54.1797 13.48 53.8377 10.492 53.1537C7.54 52.4337 5.11 51.4797 3.202 50.2917L7.306 41.0037C9.106 42.0477 11.122 42.8937 13.354 43.5417C15.586 44.1537 17.728 44.4597 19.78 44.4597C21.544 44.4597 22.804 44.2977 23.56 43.9737C24.316 43.6137 24.694 43.0917 24.694 42.4077C24.694 41.6157 24.19 41.0217 23.182 40.6257C22.21 40.2297 20.59 39.7977 18.322 39.3297C15.406 38.7177 12.976 38.0697 11.032 37.3857C9.088 36.6657 7.396 35.5137 5.956 33.9297C4.516 32.3097 3.796 30.1317 3.796 27.3957C3.796 25.0197 4.462 22.8597 5.794 20.9157C7.126 18.9717 9.106 17.4417 11.734 16.3257C14.398 15.2097 17.62 14.6517 21.4 14.6517C23.992 14.6517 26.53 14.9397 29.014 15.5157C31.534 16.0557 33.748 16.8657 35.656 17.9457L31.822 27.1797C28.114 25.3077 24.604 24.3717 21.292 24.3717C18.016 24.3717 16.378 25.1637 16.378 26.7477C16.378 27.5037 16.864 28.0797 17.836 28.4757C18.808 28.8357 20.41 29.2317 22.642 29.6637C25.522 30.2037 27.952 30.8337 29.932 31.5537C31.912 32.2377 33.622 33.3717 35.062 34.9557C36.538 36.5397 37.276 38.6997 37.276 41.4357C37.276 43.8117 36.61 45.9717 35.278 47.9157C33.946 49.8237 31.948 51.3537 29.284 52.5057C26.656 53.6217 23.452 54.1797 19.672 54.1797ZM57.5382 54.1797C51.7422 54.1797 47.2242 52.6137 43.9842 49.4817C40.7442 46.3497 39.1242 41.9577 39.1242 36.3057V15.5157H51.8682V35.9277C51.8682 38.6997 52.3542 40.7157 53.3262 41.9757C54.3342 43.2357 55.7742 43.8657 57.6462 43.8657C59.5182 43.8657 60.9402 43.2357 61.9122 41.9757C62.9202 40.7157 63.4242 38.6997 63.4242 35.9277V15.5157H75.9522V36.3057C75.9522 41.9577 74.3322 46.3497 71.0922 49.4817C67.8522 52.6137 63.3342 54.1797 57.5382 54.1797ZM110.414 33.5517C112.646 34.3797 114.374 35.5857 115.598 37.1697C116.822 38.7537 117.434 40.6617 117.434 42.8937C117.434 46.2057 116.066 48.7797 113.33 50.6157C110.594 52.4157 106.634 53.3157 101.45 53.3157H80.1739V15.5157H100.37C105.41 15.5157 109.208 16.4157 111.764 18.2157C114.356 20.0157 115.652 22.4097 115.652 25.3977C115.652 27.1617 115.202 28.7457 114.302 30.1497C113.438 31.5537 112.142 32.6877 110.414 33.5517ZM92.7019 24.4257V30.0417H98.6419C101.414 30.0417 102.8 29.1057 102.8 27.2337C102.8 25.3617 101.414 24.4257 98.6419 24.4257H92.7019ZM100.37 44.4057C103.178 44.4057 104.582 43.4157 104.582 41.4357C104.582 39.4557 103.178 38.4657 100.37 38.4657H92.7019V44.4057H100.37ZM137.222 54.1797C133.946 54.1797 130.868 53.8377 127.988 53.1537C125.108 52.4337 122.732 51.4977 120.86 50.3457L125.774 40.9497C129.842 43.2897 134.09 44.4597 138.518 44.4597C140.138 44.4597 141.38 44.2617 142.244 43.8657C143.108 43.4697 143.54 42.9297 143.54 42.2457C143.54 41.5977 143.09 41.0757 142.19 40.6797C141.326 40.2837 139.94 39.8517 138.032 39.3837C135.512 38.7357 133.424 38.0877 131.768 37.4397C130.112 36.7557 128.654 35.7297 127.394 34.3617C126.17 32.9577 125.558 31.1217 125.558 28.8537C125.558 26.0097 126.314 23.5257 127.826 21.4017C129.374 19.2417 131.588 17.5857 134.468 16.4337C137.348 15.2457 140.75 14.6517 144.674 14.6517C147.482 14.6517 150.092 14.9397 152.504 15.5157C154.952 16.0557 157.058 16.8477 158.822 17.8917L154.232 27.1797C152.756 26.2437 151.118 25.5417 149.318 25.0737C147.554 24.6057 145.736 24.3717 143.864 24.3717C142.1 24.3717 140.732 24.6237 139.76 25.1277C138.788 25.6317 138.302 26.2257 138.302 26.9097C138.302 27.5937 138.734 28.1337 139.598 28.5297C140.498 28.9257 141.956 29.3577 143.972 29.8257C146.42 30.4017 148.472 31.0137 150.128 31.6617C151.82 32.3097 153.278 33.3177 154.502 34.6857C155.726 36.0537 156.338 37.8537 156.338 40.0857C156.338 42.8937 155.564 45.3597 154.016 47.4837C152.468 49.6077 150.254 51.2637 147.374 52.4517C144.494 53.6037 141.11 54.1797 137.222 54.1797ZM179.192 54.1797C175.34 54.1797 171.938 53.4777 168.986 52.0737C166.07 50.6337 163.802 48.6357 162.182 46.0797C160.598 43.5237 159.806 40.5897 159.806 37.2777C159.806 32.8857 160.814 28.9797 162.83 25.5597C164.882 22.1397 167.708 19.4757 171.308 17.5677C174.944 15.6237 179.066 14.6517 183.674 14.6517C187.31 14.6517 190.532 15.3177 193.34 16.6497C196.148 17.9457 198.236 19.7997 199.604 22.2117L190.424 29.3937C188.732 26.4417 186.212 24.9657 182.864 24.9657C180.884 24.9657 179.12 25.4517 177.572 26.4237C176.024 27.3957 174.818 28.7637 173.954 30.5277C173.09 32.2557 172.658 34.2357 172.658 36.4677C172.658 38.6997 173.36 40.4997 174.764 41.8677C176.204 43.1997 178.094 43.8657 180.434 43.8657C183.638 43.8657 186.446 42.4077 188.858 39.4917L196.364 46.6737C194.168 49.3737 191.666 51.2997 188.858 52.4517C186.086 53.6037 182.864 54.1797 179.192 54.1797ZM238.113 27.9357C238.113 31.2837 237.213 34.2177 235.413 36.7377C233.649 39.2217 231.147 41.0757 227.907 42.2997L234.225 53.3157H220.995L215.649 43.8117H212.517L210.627 53.3157H197.883L205.443 15.5157H222.399C227.367 15.5157 231.219 16.6137 233.955 18.8097C236.727 20.9697 238.113 24.0117 238.113 27.9357ZM225.207 29.1777C225.207 26.6217 223.623 25.3437 220.455 25.3437H216.189L214.407 34.1997H219.645C221.409 34.1997 222.777 33.7677 223.749 32.9037C224.721 32.0037 225.207 30.7617 225.207 29.1777ZM245.68 15.5157H258.424L250.864 53.3157H238.12L245.68 15.5157ZM281.353 15.5157C286.393 15.5157 290.299 16.6137 293.071 18.8097C295.843 21.0057 297.229 24.0837 297.229 28.0437C297.229 31.2117 296.437 34.0017 294.853 36.4137C293.305 38.8257 291.073 40.6977 288.157 42.0297C285.277 43.3617 281.929 44.0277 278.113 44.0277H271.579L269.743 53.3157H256.999L264.559 15.5157H281.353ZM278.761 34.1997C280.525 34.1997 281.893 33.7677 282.865 32.9037C283.837 32.0037 284.323 30.7617 284.323 29.1777C284.323 26.6217 282.739 25.3437 279.571 25.3437H275.305L273.523 34.1997H278.761ZM309.528 25.3977H298.458L300.456 15.5157H335.34L333.342 25.3977H322.272L316.71 53.3157H303.966L309.528 25.3977Z" fill="#001168"/>
<path d="M119.548 14.9585C117.568 14.9585 115.948 14.3645 114.688 13.1765C113.464 11.9525 112.852 10.4045 112.852 8.53249C112.852 6.30049 113.59 4.50049 115.066 3.13249C116.542 1.72849 118.36 1.02649 120.52 1.02649C122.5 1.02649 124.102 1.62049 125.326 2.80849C126.55 3.99649 127.162 5.54449 127.162 7.45249C127.162 9.68449 126.424 11.5025 124.948 12.9065C123.472 14.2745 121.672 14.9585 119.548 14.9585Z" fill="#FF0000"/>
</svg>
