<svg width="336" height="57" viewBox="0 0 336 57" fill="none" xmlns="http://www.w3.org/2000/svg">
<path d="M17.946 55.1915C14.814 55.1915 11.754 54.8495 8.76599 54.1655C5.81399 53.4455 3.38399 52.4915 1.47599 51.3035L5.57999 42.0155C7.37999 43.0595 9.39599 43.9055 11.628 44.5535C13.86 45.1655 16.002 45.4715 18.054 45.4715C19.818 45.4715 21.078 45.3095 21.834 44.9855C22.59 44.6255 22.968 44.1035 22.968 43.4195C22.968 42.6275 22.464 42.0335 21.456 41.6375C20.484 41.2415 18.864 40.8095 16.596 40.3415C13.68 39.7295 11.25 39.0815 9.30599 38.3975C7.36199 37.6775 5.66999 36.5255 4.22999 34.9415C2.78999 33.3215 2.06999 31.1435 2.06999 28.4075C2.06999 26.0315 2.73599 23.8715 4.06799 21.9275C5.39999 19.9835 7.37999 18.4535 10.008 17.3375C12.672 16.2215 15.894 15.6635 19.674 15.6635C22.266 15.6635 24.804 15.9515 27.288 16.5275C29.808 17.0675 32.022 17.8775 33.93 18.9575L30.096 28.1915C26.388 26.3195 22.878 25.3835 19.566 25.3835C16.29 25.3835 14.652 26.1755 14.652 27.7595C14.652 28.5155 15.138 29.0915 16.11 29.4875C17.082 29.8475 18.684 30.2435 20.916 30.6755C23.796 31.2155 26.226 31.8455 28.206 32.5655C30.186 33.2495 31.896 34.3835 33.336 35.9675C34.812 37.5515 35.55 39.7115 35.55 42.4475C35.55 44.8235 34.884 46.9835 33.552 48.9275C32.22 50.8355 30.222 52.3655 27.558 53.5175C24.93 54.6335 21.726 55.1915 17.946 55.1915ZM57.4322 55.1915C51.6362 55.1915 47.1182 53.6255 43.8782 50.4935C40.6382 47.3615 39.0182 42.9695 39.0182 37.3175V16.5275H51.7622V36.9395C51.7622 39.7115 52.2482 41.7275 53.2202 42.9875C54.2282 44.2475 55.6682 44.8775 57.5402 44.8775C59.4122 44.8775 60.8342 44.2475 61.8062 42.9875C62.8142 41.7275 63.3182 39.7115 63.3182 36.9395V16.5275H75.8462V37.3175C75.8462 42.9695 74.2262 47.3615 70.9862 50.4935C67.7462 53.6255 63.2282 55.1915 57.4322 55.1915ZM111.928 34.5635C114.16 35.3915 115.888 36.5975 117.112 38.1815C118.336 39.7655 118.948 41.6735 118.948 43.9055C118.948 47.2175 117.58 49.7915 114.844 51.6275C112.108 53.4275 108.148 54.3275 102.964 54.3275H81.6879V16.5275H101.884C106.924 16.5275 110.722 17.4275 113.278 19.2275C115.87 21.0275 117.166 23.4215 117.166 26.4095C117.166 28.1735 116.716 29.7575 115.816 31.1615C114.952 32.5655 113.656 33.6995 111.928 34.5635ZM94.2159 25.4375V31.0535H100.156C102.928 31.0535 104.314 30.1175 104.314 28.2455C104.314 26.3735 102.928 25.4375 100.156 25.4375H94.2159ZM101.884 45.4175C104.692 45.4175 106.096 44.4275 106.096 42.4475C106.096 40.4675 104.692 39.4775 101.884 39.4775H94.2159V45.4175H101.884ZM137.116 55.1915C133.84 55.1915 130.762 54.8495 127.882 54.1655C125.002 53.4455 122.626 52.5095 120.754 51.3575L125.668 41.9615C129.736 44.3015 133.984 45.4715 138.412 45.4715C140.032 45.4715 141.274 45.2735 142.138 44.8775C143.002 44.4815 143.434 43.9415 143.434 43.2575C143.434 42.6095 142.984 42.0875 142.084 41.6915C141.22 41.2955 139.834 40.8635 137.926 40.3955C135.406 39.7475 133.318 39.0995 131.662 38.4515C130.006 37.7675 128.548 36.7415 127.288 35.3735C126.064 33.9695 125.452 32.1335 125.452 29.8655C125.452 27.0215 126.208 24.5375 127.72 22.4135C129.268 20.2535 131.482 18.5975 134.362 17.4455C137.242 16.2575 140.644 15.6635 144.568 15.6635C147.376 15.6635 149.986 15.9515 152.398 16.5275C154.846 17.0675 156.952 17.8595 158.716 18.9035L154.126 28.1915C152.65 27.2555 151.012 26.5535 149.212 26.0855C147.448 25.6175 145.63 25.3835 143.758 25.3835C141.994 25.3835 140.626 25.6355 139.654 26.1395C138.682 26.6435 138.196 27.2375 138.196 27.9215C138.196 28.6055 138.628 29.1455 139.492 29.5415C140.392 29.9375 141.85 30.3695 143.866 30.8375C146.314 31.4135 148.366 32.0255 150.022 32.6735C151.714 33.3215 153.172 34.3295 154.396 35.6975C155.62 37.0655 156.232 38.8655 156.232 41.0975C156.232 43.9055 155.458 46.3715 153.91 48.4955C152.362 50.6195 150.148 52.2755 147.268 53.4635C144.388 54.6155 141.004 55.1915 137.116 55.1915ZM179.086 55.1915C175.234 55.1915 171.832 54.4895 168.88 53.0855C165.964 51.6455 163.696 49.6475 162.076 47.0915C160.492 44.5355 159.7 41.6015 159.7 38.2895C159.7 33.8975 160.708 29.9915 162.724 26.5715C164.776 23.1515 167.602 20.4875 171.202 18.5795C174.838 16.6355 178.96 15.6635 183.568 15.6635C187.204 15.6635 190.426 16.3295 193.234 17.6615C196.042 18.9575 198.13 20.8115 199.498 23.2235L190.318 30.4055C188.626 27.4535 186.106 25.9775 182.758 25.9775C180.778 25.9775 179.014 26.4635 177.466 27.4355C175.918 28.4075 174.712 29.7755 173.848 31.5395C172.984 33.2675 172.552 35.2475 172.552 37.4795C172.552 39.7115 173.254 41.5115 174.658 42.8795C176.098 44.2115 177.988 44.8775 180.328 44.8775C183.532 44.8775 186.34 43.4195 188.752 40.5035L196.258 47.6855C194.062 50.3855 191.56 52.3115 188.752 53.4635C185.98 54.6155 182.758 55.1915 179.086 55.1915ZM238.007 28.9475C238.007 32.2955 237.107 35.2295 235.307 37.7495C233.543 40.2335 231.041 42.0875 227.801 43.3115L234.119 54.3275H220.889L215.543 44.8235H212.411L210.521 54.3275H197.777L205.337 16.5275H222.293C227.261 16.5275 231.113 17.6255 233.849 19.8215C236.621 21.9815 238.007 25.0235 238.007 28.9475ZM225.101 30.1895C225.101 27.6335 223.517 26.3555 220.349 26.3555H216.083L214.301 35.2115H219.539C221.303 35.2115 222.671 34.7795 223.643 33.9155C224.615 33.0155 225.101 31.7735 225.101 30.1895ZM245.574 16.5275H258.318L250.758 54.3275H238.014L245.574 16.5275ZM281.247 16.5275C286.287 16.5275 290.193 17.6255 292.965 19.8215C295.737 22.0175 297.123 25.0955 297.123 29.0555C297.123 32.2235 296.331 35.0135 294.747 37.4255C293.199 39.8375 290.967 41.7095 288.051 43.0415C285.171 44.3735 281.823 45.0395 278.007 45.0395H271.473L269.637 54.3275H256.893L264.453 16.5275H281.247ZM278.655 35.2115C280.419 35.2115 281.787 34.7795 282.759 33.9155C283.731 33.0155 284.217 31.7735 284.217 30.1895C284.217 27.6335 282.633 26.3555 279.465 26.3555H275.199L273.417 35.2115H278.655ZM309.422 26.4095H298.352L300.35 16.5275H335.234L333.236 26.4095H322.166L316.604 54.3275H303.86L309.422 26.4095Z" fill="#001168"/>
<path d="M121.822 14.9703C119.842 14.9703 118.222 14.3763 116.962 13.1883C115.738 11.9643 115.126 10.4163 115.126 8.5443C115.126 6.3123 115.864 4.5123 117.34 3.1443C118.816 1.7403 120.634 1.0383 122.794 1.0383C124.774 1.0383 126.376 1.6323 127.6 2.8203C128.824 4.0083 129.436 5.5563 129.436 7.4643C129.436 9.6963 128.698 11.5143 127.222 12.9183C125.746 14.2863 123.946 14.9703 121.822 14.9703Z" fill="#FF0000"/>
</svg>
