<svg width="273" height="62" viewBox="0 0 273 62" fill="none" xmlns="http://www.w3.org/2000/svg">
<path d="M13.875 50.7135C11.463 50.7135 9.10501 50.4255 6.80101 49.8495C4.49701 49.2375 2.66101 48.4815 1.29301 47.5815L4.10101 41.5335C5.39701 42.3615 6.96301 43.0455 8.79901 43.5855C10.635 44.0895 12.435 44.3415 14.199 44.3415C17.763 44.3415 19.545 43.4595 19.545 41.6955C19.545 40.8675 19.059 40.2735 18.087 39.9135C17.115 39.5535 15.621 39.2475 13.605 38.9955C11.229 38.6355 9.26701 38.2215 7.71901 37.7535C6.17101 37.2855 4.82101 36.4575 3.66901 35.2695C2.55301 34.0815 1.99501 32.3895 1.99501 30.1935C1.99501 28.3575 2.51701 26.7375 3.56101 25.3335C4.64101 23.8935 6.18901 22.7775 8.20501 21.9855C10.257 21.1935 12.669 20.7975 15.441 20.7975C17.493 20.7975 19.527 21.0315 21.543 21.4995C23.595 21.9315 25.287 22.5435 26.619 23.3355L23.811 29.3295C21.255 27.8895 18.465 27.1695 15.441 27.1695C13.641 27.1695 12.291 27.4215 11.391 27.9255C10.491 28.4295 10.041 29.0775 10.041 29.8695C10.041 30.7695 10.527 31.3995 11.499 31.7595C12.471 32.1195 14.019 32.4615 16.143 32.7855C18.519 33.1815 20.463 33.6135 21.975 34.0815C23.487 34.5135 24.801 35.3235 25.917 36.5115C27.033 37.6995 27.591 39.3555 27.591 41.4795C27.591 43.2795 27.051 44.8815 25.971 46.2855C24.891 47.6895 23.307 48.7875 21.219 49.5795C19.167 50.3355 16.719 50.7135 13.875 50.7135ZM59.8965 21.2295V50.2815H51.9045V46.8255C50.7885 48.0855 49.4565 49.0575 47.9085 49.7415C46.3605 50.3895 44.6865 50.7135 42.8865 50.7135C39.0705 50.7135 36.0465 49.6155 33.8145 47.4195C31.5825 45.2235 30.4665 41.9655 30.4665 37.6455V21.2295H38.8905V36.4035C38.8905 41.0835 40.8525 43.4235 44.7765 43.4235C46.7925 43.4235 48.4125 42.7755 49.6365 41.4795C50.8605 40.1475 51.4725 38.1855 51.4725 35.5935V21.2295H59.8965ZM82.7128 20.7975C85.4128 20.7975 87.8608 21.4275 90.0568 22.6875C92.2888 23.9115 94.0348 25.6575 95.2948 27.9255C96.5548 30.1575 97.1848 32.7675 97.1848 35.7555C97.1848 38.7435 96.5548 41.3715 95.2948 43.6395C94.0348 45.8715 92.2888 47.6175 90.0568 48.8775C87.8608 50.1015 85.4128 50.7135 82.7128 50.7135C78.7168 50.7135 75.6748 49.4535 73.5868 46.9335V50.2815H65.5408V10.2135H73.9648V24.3075C76.0888 21.9675 79.0048 20.7975 82.7128 20.7975ZM81.2548 43.8015C83.4148 43.8015 85.1788 43.0815 86.5468 41.6415C87.9508 40.1655 88.6528 38.2035 88.6528 35.7555C88.6528 33.3075 87.9508 31.3635 86.5468 29.9235C85.1788 28.4475 83.4148 27.7095 81.2548 27.7095C79.0948 27.7095 77.3128 28.4475 75.9088 29.9235C74.5408 31.3635 73.8568 33.3075 73.8568 35.7555C73.8568 38.2035 74.5408 40.1655 75.9088 41.6415C77.3128 43.0815 79.0948 43.8015 81.2548 43.8015ZM112.187 50.8515C109.489 50.8515 106.886 50.5855 104.378 50.0535C101.87 49.5215 99.913 48.8375 98.507 48.0015L102.953 39.2235C104.435 40.1355 106.145 40.8385 108.083 41.3325C110.059 41.8265 111.959 42.0735 113.783 42.0735C116.329 42.0735 117.602 41.5795 117.602 40.5915C117.602 40.1735 117.26 39.8695 116.576 39.6795C115.93 39.4515 114.885 39.2425 113.441 39.0525C111.199 38.7105 109.299 38.3115 107.741 37.8555C106.183 37.3615 104.815 36.5255 103.637 35.3475C102.459 34.1315 101.87 32.4595 101.87 30.3315C101.87 26.4935 103.504 23.5675 106.772 21.5535C110.04 19.5395 114.258 18.5325 119.426 18.5325C121.706 18.5325 123.891 18.7415 125.981 19.1595C128.109 19.5395 129.99 20.1095 131.624 20.8695L127.178 29.6475C124.48 28.0895 121.383 27.3105 117.887 27.3105C116.519 27.3105 115.512 27.4625 114.866 27.7665C114.258 28.0705 113.954 28.4315 113.954 28.8495C113.954 29.2675 114.277 29.5905 114.923 29.8185C115.569 30.0085 116.671 30.2365 118.229 30.5025C120.433 30.8445 122.295 31.2625 123.815 31.7565C125.373 32.2125 126.722 33.0485 127.862 34.2645C129.04 35.4425 129.629 37.0765 129.629 39.1665C129.629 41.6745 128.85 43.8215 127.292 45.6075C125.772 47.3555 123.682 48.6665 121.022 49.5405C118.4 50.4145 115.455 50.8515 112.187 50.8515ZM148.634 50.8515C145.252 50.8515 142.269 50.2625 139.685 49.0845C137.139 47.8685 135.163 46.1775 133.757 44.0115C132.351 41.8455 131.648 39.3185 131.648 36.4305C131.648 33.0485 132.484 30.0085 134.156 27.3105C135.828 24.5745 138.165 22.4275 141.167 20.8695C144.169 19.3115 147.551 18.5325 151.313 18.5325C154.999 18.5325 158.21 19.3495 160.946 20.9835C163.72 22.6175 165.658 24.8405 166.76 27.6525L155.816 32.6685C154.828 30.0085 153.118 28.6785 150.686 28.6785C148.938 28.6785 147.494 29.3245 146.354 30.6165C145.252 31.9085 144.701 33.5805 144.701 35.6325C144.701 37.1525 145.119 38.3875 145.955 39.3375C146.829 40.2495 148.045 40.7055 149.603 40.7055C150.895 40.7055 151.997 40.4015 152.909 39.7935C153.859 39.1475 154.695 38.1215 155.417 36.7155L164.822 42.1875C163.264 44.9615 161.079 47.1085 158.267 48.6285C155.493 50.1105 152.282 50.8515 148.634 50.8515ZM181.88 22.2945C184.426 19.7865 188.074 18.5325 192.824 18.5325L190.544 29.9325C189.594 29.7805 188.663 29.7045 187.751 29.7045C185.547 29.7045 183.799 30.1985 182.507 31.1865C181.253 32.1365 180.398 33.6945 179.942 35.8605L177.035 50.2815H164.153L170.366 19.1025H182.507L181.88 22.2945ZM195.221 19.1025H208.046L201.833 50.2815H189.008L195.221 19.1025ZM203.03 16.5945C200.826 16.5945 199.059 16.0245 197.729 14.8845C196.399 13.7065 195.734 12.2435 195.734 10.4955C195.734 8.48149 196.494 6.80949 198.014 5.47949C199.534 4.14949 201.51 3.48449 203.942 3.48449C206.146 3.48449 207.913 4.03549 209.243 5.13749C210.573 6.20149 211.238 7.60749 211.238 9.35549C211.238 11.5215 210.478 13.2695 208.958 14.5995C207.476 15.9295 205.5 16.5945 203.03 16.5945ZM232.624 18.5325C234.752 18.5325 236.804 19.1025 238.78 20.2425C240.756 21.3825 242.352 23.0545 243.568 25.2585C244.822 27.4245 245.449 29.9895 245.449 32.9535C245.449 36.2975 244.689 39.3375 243.169 42.0735C241.687 44.8095 239.673 46.9565 237.127 48.5145C234.581 50.0725 231.826 50.8515 228.862 50.8515C224.682 50.8515 221.718 49.5595 219.97 46.9755L217.063 61.3395H204.181L212.617 19.1025H224.758L224.188 21.9525C226.544 19.6725 229.356 18.5325 232.624 18.5325ZM226.753 40.7055C228.425 40.7055 229.774 40.0595 230.8 38.7675C231.864 37.4755 232.396 35.7465 232.396 33.5805C232.396 32.0985 231.978 30.9205 231.142 30.0465C230.344 29.1345 229.223 28.6785 227.779 28.6785C226.107 28.6785 224.739 29.3245 223.675 30.6165C222.649 31.9085 222.136 33.6375 222.136 35.8035C222.136 37.2855 222.535 38.4825 223.333 39.3945C224.169 40.2685 225.309 40.7055 226.753 40.7055ZM261.934 38.0265C261.858 38.4825 261.82 38.7865 261.82 38.9385C261.82 40.3825 262.618 41.1045 264.214 41.1045C265.05 41.1045 266 40.8575 267.064 40.3635L268.546 49.0275C266.342 50.2435 263.53 50.8515 260.11 50.8515C256.576 50.8515 253.783 50.0155 251.731 48.3435C249.717 46.6335 248.71 44.2395 248.71 41.1615C248.71 40.1735 248.824 39.1475 249.052 38.0835L250.648 30.2175H246.316L248.197 20.8125H252.472L254.239 12.0915H267.121L265.354 20.8125H271.738L269.857 30.2175H263.473L261.934 38.0265Z" fill="#001168"/>
<path d="M203.014 16.8313C200.777 16.8313 198.947 16.1603 197.524 14.8183C196.141 13.4356 195.45 11.687 195.45 9.57231C195.45 7.05098 196.284 5.01765 197.951 3.47231C199.618 1.88631 201.672 1.09331 204.112 1.09331C206.349 1.09331 208.158 1.76431 209.541 3.10631C210.924 4.44831 211.615 6.19698 211.615 8.35231C211.615 10.8736 210.781 12.9273 209.114 14.5133C207.447 16.0586 205.413 16.8313 203.014 16.8313Z" fill="#FF0000"/>
</svg>
